Coordinates
version=1
nRows=7
nColumns=40
inDegrees=yes

Units are S.I. units (second, meters, Newtons, ...)
Angles are in degrees.

endheader
time	pelvis_tilt	pelvis_list	pelvis_rotation	pelvis_tx	pelvis_ty	pelvis_tz	hip_flexion_r	hip_adduction_r	hip_rotation_r	knee_angle_r	knee_angle_r_beta	ankle_angle_r	subtalar_angle_r	mtp_angle_r	hip_flexion_l	hip_adduction_l	hip_rotation_l	knee_angle_l	knee_angle_l_beta	ankle_angle_l	subtalar_angle_l	mtp_angle_l	lumbar_extension	lumbar_bending	lumbar_rotation	arm_flex_r	arm_add_r	arm_rot_r	elbow_flex_r	pro_sup_r	wrist_flex_r	wrist_dev_r	arm_flex_l	arm_add_l	arm_rot_l	elbow_flex_l	pro_sup_l	wrist_flex_l	wrist_dev_l
     51.60250000	     -5.29364401	     -2.91341971	     -0.61240234	      1.09968343	      0.91814560	      0.47225214	     -2.03540459	     -4.01690395	    -15.38713572	     28.05565948	     28.05565948	     14.80975765	      6.47331339	    -13.76152921	     28.67584967	     -4.53796828	     -4.18589500	     25.66887437	     25.66887437	      5.40242541	    -14.78553372	      5.36555107	     -6.62092213	      6.36431239	      4.46354929	     41.06056524	    -17.91829001	     -2.55499671	    111.92995150	     43.68351521	      0.00000000	      0.00000000	    -12.71654021	     -6.18916559	      9.92475529	     22.09790140	     43.97369415	      0.00000000	      0.00000000
     51.61371429	     -5.16487996	     -2.83112444	     -0.58158849	      1.10002862	      0.91981903	      0.46910398	     -1.18914154	     -4.72673094	    -14.74593194	     30.35957021	     30.35957021	     10.35500992	      3.65749907	    -22.73344210	     27.79604045	     -4.18875647	     -4.13805509	     25.58539286	     25.58539286	      6.31026331	    -14.75933483	      6.02499298	     -6.77058618	      6.43862943	      4.95872619	     38.03121465	    -18.41778042	     -4.12703338	    112.68186671	     43.79102319	      0.00000000	      0.00000000	    -10.87797931	     -6.31720324	      9.49613389	     22.59393851	     44.20776755	      0.00000000	      0.00000000
     51.62492857	     -4.95609055	     -2.68704673	     -0.60775995	      1.10036560	      0.92142376	      0.46600293	      0.07761068	     -5.73958850	    -14.24556528	     33.90073313	     33.90073313	      8.44636602	      2.74878394	    -23.40405424	     26.80226533	     -3.82325578	     -4.23497856	     25.46335819	     25.46335819	      6.91384169	    -14.68431806	      5.80419082	     -6.97509597	      6.43135731	      4.56615221	     35.66554761	    -18.27159699	     -3.83623529	    111.61367254	     43.81332025	      0.00000000	      0.00000000	     -9.49664564	     -6.44038650	      9.40642796	     23.21355280	     44.25813107	      0.00000000	      0.00000000
     51.63614286	     -4.97061461	     -2.53822831	     -0.67671634	      1.10037415	      0.92252357	      0.46309606	      1.89652210	     -6.68759850	    -13.43607667	     37.76475338	     37.76475338	      5.98301891	      1.08473039	    -24.35868111	     25.98750205	     -3.45074694	     -4.35041221	     25.16892945	     25.16892945	      7.45788542	    -14.69867495	      5.65408970	     -6.88264351	      6.42232680	      4.36603571	     33.20546009	    -18.39963905	     -3.96520792	    110.15310883	     43.86443575	      0.00000000	      0.00000000	     -8.07428364	     -6.65552420	      9.18988657	     24.11559725	     44.33180099	      0.00000000	      0.00000000
     51.64735714	     -4.91576775	     -2.47714509	     -0.71923078	      1.10024748	      0.92359383	      0.46042353	      3.73987332	     -7.39494849	    -12.40781707	     41.56365076	     41.56365076	      3.08997610	     -1.04947043	    -25.11664177	     25.14901177	     -3.17468686	     -4.34452161	     24.94065019	     24.94065019	      7.94145384	    -14.71246839	      5.50939719	     -6.89114869	      6.46555342	      4.29276669	     30.66856837	    -18.42130806	     -4.36661104	    108.41399540	     43.93445683	      0.00000000	      0.00000000	     -6.63485008	     -6.91602622	      8.86002545	     25.26954987	     44.42317123	      0.00000000	      0.00000000
     51.65857143	     -4.73733166	     -2.36976348	     -0.75605294	      1.10006880	      0.92463529	      0.45782573	      5.53982490	     -8.13700389	    -11.47917557	     45.34799966	     45.34799966	      0.07077680	     -3.01280478	    -25.20337956	     24.24220263	     -2.87120149	     -4.44241925	     24.82392154	     24.82392154	      8.43577451	    -14.70803070	      5.31882439	     -7.07408609	      6.51689077	      4.12661317	     28.09652959	    -18.16262006	     -4.59365386	    106.63886239	     43.99584105	      0.00000000	      0.00000000	     -5.05540416	     -7.25955485	      8.53840337	     26.43474350	     44.50876792	      0.00000000	      0.00000000
     51.66978571	     -4.65972320	     -2.47734693	     -0.79867373	      1.09963571	      0.92541770	      0.45570570	      7.54951189	     -8.33731414	    -10.21700773	     48.96636399	     48.96636399	     -3.37518256	     -6.02437396	    -25.31513710	     23.47005723	     -2.81902344	     -4.36919519	     24.70840476	     24.70840476	      8.90035044	    -14.68953930	      4.94853010	     -7.16207491	      6.66496169	      3.87920229	     25.85454059	    -17.46099224	     -5.95397927	    103.43787083	     44.29615631	      0.00000000	      0.00000000	     -4.14336654	     -7.44034881	      5.57500650	     29.38174331	     45.10183754	      0.00000000	      0.00000000
